<svg width="20" height="20" viewBox="0 0 20 20" fill="none" xmlns="http://www.w3.org/2000/svg">
<path d="M9.21836 9.2181H5.22331C4.79162 9.2181 4.44167 9.56805 4.44167 9.99974C4.44167 10.4314 4.79162 10.7814 5.22331 10.7814H9.21836V14.7764C9.21836 15.2081 9.56831 15.5581 10 15.5581C10.4317 15.5581 10.7816 15.2081 10.7816 14.7764V10.7814H14.7767C15.2084 10.7814 15.5583 10.4314 15.5583 9.99974C15.5583 9.56805 15.2084 9.2181 14.7767 9.2181H10.7816V5.22305C10.7816 4.79136 10.4317 4.44141 10 4.44141C9.56831 4.44141 9.21836 4.79136 9.21836 5.22305V9.2181Z" fill="#5E4AE3"/>
</svg>
