<svg width="73" height="52" viewBox="0 0 73 52" fill="none" xmlns="http://www.w3.org/2000/svg">
<g clip-path="url(#clip0_5032_367)">
<path fill-rule="evenodd" clip-rule="evenodd" d="M17.1055 8.50592L12.8214 9.20892C10.2274 10.0634 9.05731 13.3178 8.27106 15.6328C7.64578 17.4751 7.12574 19.366 6.62428 21.2386C6.01138 23.5536 5.42324 25.8747 4.81653 28.1897L0 39.0073C2.20397 44.6919 9.42257 44.2859 14.5796 43.6435C17.477 43.2799 20.3805 42.6799 23.2035 41.9526C24.5098 41.6193 25.8409 41.2557 27.1286 40.8376L28.0572 40.5345C28.0572 39.2619 28.0572 38.1771 28.3668 36.9105L28.6887 36.8317L65.2894 28.1231L45.4165 31.535C46.2461 30.3411 46.9581 29.0624 47.5524 27.7231L66.8681 24.3596L33.8457 28.3534L42.253 25.1778L67.1962 22.6809L42.8102 26.1292L40.761 27.517L33.8519 28.3534C33.8519 28.3534 26.7138 31.5168 26.7138 39.577C26.7138 39.577 25.8347 39.8558 24.3984 40.2376L22.4297 32.4501L23.2964 40.5224C22.6711 40.68 21.9839 40.8497 21.2472 41.0133L19.6438 32.6743L19.8666 41.3103C19.1795 41.4557 18.4613 41.589 17.7246 41.7224L16.6783 33.038L16.5917 41.9102C15.7497 42.0436 14.8891 42.1587 14.0224 42.2496L13.7067 33.1289L12.9947 42.3466C11.998 42.4314 11.0074 42.4738 10.054 42.4678L11.2056 33.0804L9.08826 42.4435C7.96771 42.395 6.90906 42.2678 5.95566 42.0375L8.46917 33.2622L5.00226 41.7587C4.30888 41.5224 3.68979 41.2194 3.16356 40.8376L6.28378 31.6683L2.55685 40.3224C2.12967 39.8982 1.79537 39.4013 1.57249 38.8195L6.11662 28.614L6.32092 27.8382L9.41019 32.3895L23.544 30.9956L28.3977 22.0204L32.7747 21.6204L30.5522 19.372L41.1882 19.8629L67.9267 19.4205L48.9825 19.1478L26.7076 17.7782L29.1654 20.2689L26.9367 20.4447L22.4297 29.3957L20.1143 29.5412L23.2778 16.4691L15.954 12.6451L10.5741 15.3662L7.75103 26.7716L6.90287 25.5838C9.12541 16.9661 10.5741 11.3421 13.1681 10.4876C19.9719 9.36648 23.3336 9.04529 31.5613 10.9361C32.1494 9.95433 32.0813 8.48774 32.0813 8.48774L34.4462 9.11195C29.834 6.89389 25.1413 6.77268 21.2782 7.46961L21.1544 7.53022C21.792 7.22114 22.4668 6.94237 23.1726 6.71208C26.9181 5.87576 31.9451 6.7848 36.4026 8.20897L74 11.9724L36.805 6.94843C29.314 4.57886 23.2964 3.61527 17.1117 8.50592H17.1055ZM18.2199 29.6745L20.4672 17.9236L15.2235 14.8995L11.3851 17.0146L8.52489 27.8807L10.1655 30.1714L18.2261 29.6684L18.2199 29.6745ZM38.0122 10.1907L35.734 9.65738C35.412 9.57859 35.1025 9.62708 34.8239 9.79676C34.5391 9.96645 34.341 10.2089 34.2853 10.5301L33.7776 13.3117C33.6786 13.845 33.7405 14.348 34.05 14.7965C34.3596 15.251 34.7991 15.5237 35.3501 15.6086L38.0184 16.0207V10.1907H38.0122ZM39.2256 14.9177V15.851L68.7811 16.8812L39.2256 14.9177ZM71.8827 14.1541L39.2256 10.7846V11.7179L71.8827 14.1541ZM70.0378 15.2995L39.2256 12.8511V13.7844L70.0378 15.3056V15.2995ZM45.8128 28.0685C45.1441 29.42 44.327 30.6987 43.3859 31.8926L29.605 35.1712C30.4407 32.9592 32.3475 30.826 34.471 29.6987L45.8128 28.0685Z" fill="#010400"/>
</g>
<defs>
<clipPath id="clip0_5032_367">
<rect width="73" height="51" fill="white" transform="matrix(-1 0 0 1 73 0.5)"/>
</clipPath>
</defs>
</svg>
