<svg width="295" height="51" viewBox="0 0 295 51" fill="none" xmlns="http://www.w3.org/2000/svg">
<path d="M103.096 37L97.452 27.31H93.712V37H90.618V13.302H98.268C100.059 13.302 101.566 13.608 102.79 14.22C104.037 14.832 104.966 15.6593 105.578 16.702C106.19 17.7447 106.496 18.9347 106.496 20.272C106.496 21.904 106.02 23.3433 105.068 24.59C104.139 25.8367 102.733 26.664 100.852 27.072L106.802 37H103.096ZM93.712 24.828H98.268C99.9453 24.828 101.203 24.42 102.042 23.604C102.881 22.7653 103.3 21.6547 103.3 20.272C103.3 18.8667 102.881 17.7787 102.042 17.008C101.226 16.2373 99.968 15.852 98.268 15.852H93.712V24.828ZM110.148 27.616C110.148 25.712 110.533 24.046 111.304 22.618C112.074 21.1673 113.128 20.0453 114.466 19.252C115.826 18.4587 117.333 18.062 118.988 18.062C120.62 18.062 122.036 18.4133 123.238 19.116C124.439 19.8187 125.334 20.7027 125.924 21.768V18.368H129.052V37H125.924V33.532C125.312 34.62 124.394 35.5267 123.17 36.252C121.968 36.9547 120.563 37.306 118.954 37.306C117.299 37.306 115.803 36.898 114.466 36.082C113.128 35.266 112.074 34.1213 111.304 32.648C110.533 31.1747 110.148 29.4973 110.148 27.616ZM125.924 27.65C125.924 26.2447 125.64 25.0207 125.074 23.978C124.507 22.9353 123.736 22.142 122.762 21.598C121.81 21.0313 120.756 20.748 119.6 20.748C118.444 20.748 117.39 21.02 116.438 21.564C115.486 22.108 114.726 22.9013 114.16 23.944C113.593 24.9867 113.31 26.2107 113.31 27.616C113.31 29.044 113.593 30.2907 114.16 31.356C114.726 32.3987 115.486 33.2033 116.438 33.77C117.39 34.314 118.444 34.586 119.6 34.586C120.756 34.586 121.81 34.314 122.762 33.77C123.736 33.2033 124.507 32.3987 125.074 31.356C125.64 30.2907 125.924 29.0553 125.924 27.65ZM135.878 15.342C135.289 15.342 134.79 15.138 134.382 14.73C133.974 14.322 133.77 13.8233 133.77 13.234C133.77 12.6447 133.974 12.146 134.382 11.738C134.79 11.33 135.289 11.126 135.878 11.126C136.445 11.126 136.921 11.33 137.306 11.738C137.714 12.146 137.918 12.6447 137.918 13.234C137.918 13.8233 137.714 14.322 137.306 14.73C136.921 15.138 136.445 15.342 135.878 15.342ZM137.374 18.368V37H134.28V18.368H137.374ZM145.741 11.84V37H142.647V11.84H145.741ZM175.834 18.368L170.02 37H166.824L162.336 22.21L157.848 37H154.652L148.804 18.368H151.966L156.25 34.008L160.874 18.368H164.036L168.558 34.042L172.774 18.368H175.834ZM177.749 27.616C177.749 25.712 178.134 24.046 178.905 22.618C179.676 21.1673 180.73 20.0453 182.067 19.252C183.427 18.4587 184.934 18.062 186.589 18.062C188.221 18.062 189.638 18.4133 190.839 19.116C192.04 19.8187 192.936 20.7027 193.525 21.768V18.368H196.653V37H193.525V33.532C192.913 34.62 191.995 35.5267 190.771 36.252C189.57 36.9547 188.164 37.306 186.555 37.306C184.9 37.306 183.404 36.898 182.067 36.082C180.73 35.266 179.676 34.1213 178.905 32.648C178.134 31.1747 177.749 29.4973 177.749 27.616ZM193.525 27.65C193.525 26.2447 193.242 25.0207 192.675 23.978C192.108 22.9353 191.338 22.142 190.363 21.598C189.411 21.0313 188.357 20.748 187.201 20.748C186.045 20.748 184.991 21.02 184.039 21.564C183.087 22.108 182.328 22.9013 181.761 23.944C181.194 24.9867 180.911 26.2107 180.911 27.616C180.911 29.044 181.194 30.2907 181.761 31.356C182.328 32.3987 183.087 33.2033 184.039 33.77C184.991 34.314 186.045 34.586 187.201 34.586C188.357 34.586 189.411 34.314 190.363 33.77C191.338 33.2033 192.108 32.3987 192.675 31.356C193.242 30.2907 193.525 29.0553 193.525 27.65ZM217.93 18.368L206.71 45.772H203.514L207.186 36.796L199.672 18.368H203.106L208.954 33.464L214.734 18.368H217.93Z" fill="white"/>
<g clip-path="url(#clip0_5032_44)">
<path fill-rule="evenodd" clip-rule="evenodd" d="M17.1055 8.50592L12.8214 9.20892C10.2274 10.0634 9.05731 13.3178 8.27106 15.6328C7.64578 17.4751 7.12574 19.366 6.62428 21.2386C6.01138 23.5536 5.42324 25.8747 4.81653 28.1897L0 39.0073C2.20397 44.6919 9.42257 44.2859 14.5796 43.6435C17.477 43.2799 20.3805 42.6799 23.2035 41.9526C24.5098 41.6193 25.8409 41.2557 27.1286 40.8376L28.0572 40.5345C28.0572 39.2619 28.0572 38.1771 28.3668 36.9105L28.6887 36.8317L65.2894 28.1231L45.4165 31.535C46.2461 30.3411 46.9581 29.0624 47.5524 27.7231L66.8681 24.3596L33.8457 28.3534L42.253 25.1778L67.1962 22.6809L42.8102 26.1292L40.761 27.517L33.8519 28.3534C33.8519 28.3534 26.7138 31.5168 26.7138 39.577C26.7138 39.577 25.8347 39.8558 24.3984 40.2376L22.4297 32.4501L23.2964 40.5224C22.6711 40.68 21.9839 40.8497 21.2472 41.0133L19.6438 32.6743L19.8666 41.3103C19.1795 41.4557 18.4613 41.589 17.7246 41.7224L16.6783 33.038L16.5917 41.9102C15.7497 42.0436 14.8891 42.1587 14.0224 42.2496L13.7067 33.1289L12.9947 42.3466C11.998 42.4314 11.0074 42.4738 10.054 42.4678L11.2056 33.0804L9.08826 42.4435C7.96771 42.395 6.90906 42.2678 5.95566 42.0375L8.46917 33.2622L5.00226 41.7587C4.30888 41.5224 3.68979 41.2194 3.16356 40.8376L6.28378 31.6683L2.55685 40.3224C2.12967 39.8982 1.79537 39.4013 1.57249 38.8195L6.11662 28.614L6.32092 27.8382L9.41019 32.3895L23.544 30.9956L28.3977 22.0204L32.7747 21.6204L30.5522 19.372L41.1882 19.8629L67.9267 19.4205L48.9825 19.1478L26.7076 17.7782L29.1654 20.2689L26.9367 20.4447L22.4297 29.3957L20.1143 29.5412L23.2778 16.4691L15.954 12.6451L10.5741 15.3662L7.75103 26.7716L6.90287 25.5838C9.12541 16.9661 10.5741 11.3421 13.1681 10.4876C19.9719 9.36648 23.3336 9.04529 31.5613 10.9361C32.1494 9.95433 32.0813 8.48774 32.0813 8.48774L34.4462 9.11195C29.834 6.89389 25.1413 6.77268 21.2782 7.46961L21.1544 7.53022C21.792 7.22114 22.4668 6.94237 23.1726 6.71208C26.9181 5.87576 31.9451 6.7848 36.4026 8.20897L74 11.9724L36.805 6.94843C29.314 4.57886 23.2964 3.61527 17.1117 8.50592H17.1055ZM18.2199 29.6745L20.4672 17.9236L15.2235 14.8995L11.3851 17.0146L8.52489 27.8807L10.1655 30.1714L18.2261 29.6684L18.2199 29.6745ZM38.0122 10.1907L35.734 9.65738C35.412 9.57859 35.1025 9.62708 34.8239 9.79676C34.5391 9.96645 34.341 10.2089 34.2853 10.5301L33.7776 13.3117C33.6786 13.845 33.7405 14.348 34.05 14.7965C34.3596 15.251 34.7991 15.5237 35.3501 15.6086L38.0184 16.0207V10.1907H38.0122ZM39.2256 14.9177V15.851L68.7811 16.8812L39.2256 14.9177ZM71.8827 14.1541L39.2256 10.7846V11.7179L71.8827 14.1541ZM70.0378 15.2995L39.2256 12.8511V13.7844L70.0378 15.3056V15.2995ZM45.8128 28.0685C45.1441 29.42 44.327 30.6987 43.3859 31.8926L29.605 35.1712C30.4407 32.9592 32.3475 30.826 34.471 29.6987L45.8128 28.0685Z" fill="white"/>
</g>
<defs>
<clipPath id="clip0_5032_44">
<rect width="73" height="40" fill="white" transform="matrix(-1 0 0 1 73 4)"/>
</clipPath>
</defs>
</svg>
